<svg xmlns="http://www.w3.org/2000/svg" viewBox="0 0 500 500"><g id="freepik--background-simple--inject-55"><path d="M377.79,65.57a111,111,0,0,0-44.33-25.11C296.83,29.56,257.61,30.32,220,34.38,99.11,47.4,110,136.43,93.32,166.82S-7.28,222.55,11.54,333.29s146.19,133.89,262,136.06,192.51-47.76,215-124.48c12.29-42,.3-83.35-18.45-121.33-7.72-15.65-17.22-30.78-23.56-47.06C430.25,134.84,411.33,96.17,377.79,65.57Z" style="fill:#03F384"></path><path d="M377.79,65.57a111,111,0,0,0-44.33-25.11C296.83,29.56,257.61,30.32,220,34.38,99.11,47.4,110,136.43,93.32,166.82S-7.28,222.55,11.54,333.29s146.19,133.89,262,136.06,192.51-47.76,215-124.48c12.29-42,.3-83.35-18.45-121.33-7.72-15.65-17.22-30.78-23.56-47.06C430.25,134.84,411.33,96.17,377.79,65.57Z" style="fill:#fff;opacity:0.7000000000000001"></path></g><g id="freepik--Shadow--inject-55"><polygon points="119.42 239.11 61.94 460.91 451.46 460.91 391.33 239.11 119.42 239.11" style="opacity:0.18"></polygon></g><g id="freepik--Board--inject-55"><path d="M188.52,69.43H322.15a10.36,10.36,0,0,1,10.36,10.36V140a0,0,0,0,1,0,0H178.16a0,0,0,0,1,0,0V79.79A10.36,10.36,0,0,1,188.52,69.43Z" style="fill:#263238"></path><path d="M332.51,140.51H178.16a.5.5,0,0,1-.5-.5V79.79a10.88,10.88,0,0,1,10.86-10.86H322.15A10.88,10.88,0,0,1,333,79.79V140A.5.5,0,0,1,332.51,140.51Zm-153.85-1H332V79.79a9.87,9.87,0,0,0-9.86-9.86H188.52a9.87,9.87,0,0,0-9.86,9.86Z" style="fill:#263238"></path></g><g id="freepik--Field--inject-55"><polygon points="113.8 135.73 29.37 419.83 481.31 419.83 396.87 135.73 113.8 135.73" style="fill:#03F384"></polygon><path d="M481.31,420.33H29.37a.48.48,0,0,1-.4-.2.46.46,0,0,1-.08-.44l84.43-284.1a.5.5,0,0,1,.48-.36H396.87a.49.49,0,0,1,.48.36l84.44,284.1a.53.53,0,0,1-.08.44A.49.49,0,0,1,481.31,420.33ZM30,419.33h450.6L396.5,136.23H114.17Z" style="fill:#263238"></path><path d="M390.53,135.73l4.37,15.37H302.77a28.65,28.65,0,0,0-7-15.37h-1.54a28,28,0,0,1,7.16,15.37H209.29a27.89,27.89,0,0,1,7.17-15.37h-1.55a28.59,28.59,0,0,0-7,15.37H115.77l4.36-15.37h-1.35l-79.14,276H471l-79.14-276Zm-89.06,16.38c1.38,18.94-19.11,35.36-46.13,35.36s-47.52-16.42-46.13-35.36Zm10.58,257.28H198.62l4.69-62H307.36Zm79.48,0H314.18l-5-63.93H201.51l-5,63.93H119.14L142.82,279h225Zm-187.6-132c11.15-17.1,30.54-27.21,51.41-27.21s40.26,10.11,51.41,27.21Zm264.29,132H393.66l-24.35-132H308.72c-11.44-18-31.67-28.66-53.38-28.66S213.4,259.39,202,277.4h-60.6L117,409.39H42.44l73-257.28h92.33c-1.49,19.54,19.62,36.52,47.53,36.52s49-17,47.52-36.52h92.32Z" style="fill:#fff"></path><rect x="29.37" y="419.84" width="451.9" height="13.7" style="fill:#263238"></rect><path d="M481.27,434H29.37a.5.5,0,0,1-.5-.5V419.83a.5.5,0,0,1,.5-.5h451.9a.51.51,0,0,1,.5.5v13.71A.5.5,0,0,1,481.27,434Zm-451.4-1h450.9V420.33H29.87Z" style="fill:#263238"></path></g><g id="freepik--t-shirt-11--inject-55"><polygon points="430.2 300.04 418.61 290.53 414.01 289.83 403.5 289.91 398.38 290.53 386.8 300.04 390.43 305.22 397.52 303.32 396.14 331.57 420.86 331.57 419.48 303.32 426.57 305.22 430.2 300.04" style="fill:#fff"></polygon><path d="M420.86,332.07H396.14a.48.48,0,0,1-.36-.16.46.46,0,0,1-.14-.37L397,304l-6.43,1.73a.52.52,0,0,1-.54-.2l-3.63-5.19a.5.5,0,0,1,.09-.67l11.59-9.51a.47.47,0,0,1,.26-.11l5.11-.62,10.56-.08,4.69.7a.44.44,0,0,1,.24.11l11.58,9.51a.49.49,0,0,1,.1.67L427,305.51a.5.5,0,0,1-.53.2L420,304l1.35,27.56a.46.46,0,0,1-.14.37A.48.48,0,0,1,420.86,332.07Zm-24.2-1h23.67L419,303.34a.51.51,0,0,1,.18-.41.52.52,0,0,1,.45-.09l6.75,1.81,3.16-4.52L418.4,291l-4.47-.67-10.42.08-4.92.59-11.11,9.13,3.16,4.52,6.75-1.81a.5.5,0,0,1,.63.5Z" style="fill:#263238"></path><path d="M403.5,289.91l-.67.1a5.69,5.69,0,0,0,11.35-.14l-.17,0Z" style="fill:#263238"></path><path d="M408.5,295.72a6.23,6.23,0,0,1-6.17-5.67.49.49,0,0,1,.42-.53l.68-.11h.07l10.5-.08.27.05a.5.5,0,0,1,.41.52A6.2,6.2,0,0,1,408.5,295.72Zm-5.11-5.29a5.19,5.19,0,0,0,10.24-.1Z" style="fill:#263238"></path><path d="M403.78,289.91a4.77,4.77,0,0,0,9.45-.07Z" style="fill:#fff"></path><path d="M408.5,294.52a5.43,5.43,0,0,1-5.21-4.52.49.49,0,0,1,.49-.59l9.44-.07h0a.51.51,0,0,1,.38.18.47.47,0,0,1,.11.41A5.42,5.42,0,0,1,408.5,294.52Zm-4.08-4.12a4.22,4.22,0,0,0,8.17-.06Z" style="fill:#263238"></path><polygon points="390.43 305.22 392.34 304.71 388.31 298.8 386.8 300.04 390.43 305.22" style="fill:#263238"></polygon><path d="M390.43,305.72a.52.52,0,0,1-.41-.21l-3.63-5.19a.5.5,0,0,1,.09-.67l1.51-1.24a.58.58,0,0,1,.39-.11.53.53,0,0,1,.34.22l4,5.91a.49.49,0,0,1-.28.76l-1.91.52Zm-2.95-5.59,3.16,4.52.89-.24-3.33-4.88Z" style="fill:#263238"></path><polygon points="426.57 305.22 424.66 304.71 428.69 298.8 430.2 300.04 426.57 305.22" style="fill:#263238"></polygon><path d="M426.57,305.72h-.13l-1.91-.52a.5.5,0,0,1-.29-.76l4-5.91a.53.53,0,0,1,.34-.22.58.58,0,0,1,.39.11l1.5,1.24a.49.49,0,0,1,.1.67L427,305.51A.49.49,0,0,1,426.57,305.72Zm-1.1-1.31.89.24,3.16-4.52-.72-.6Z" style="fill:#263238"></path><path d="M408.52,318.26a4,4,0,0,1-2.28-.53,2.66,2.66,0,0,1-1-1.5,8.33,8.33,0,0,1-.27-2.24h2.73a7.36,7.36,0,0,0,.08,1.27,1.27,1.27,0,0,0,.31.71.9.9,0,0,0,.66.19.68.68,0,0,0,.62-.35,2.35,2.35,0,0,0,.23-1c0-.42,0-.93,0-1.53a8.62,8.62,0,0,0-.07-1.2,1.78,1.78,0,0,0-.31-.84.79.79,0,0,0-.68-.32.87.87,0,0,0-.7.31,2,2,0,0,0-.39.95H405l.26-7.92h6.4v2.38h-4.13l-.16,2.83a1.4,1.4,0,0,1,.65-.42,4,4,0,0,1,1-.23,2.52,2.52,0,0,1,1.77.38,3,3,0,0,1,1.08,1.52,7.51,7.51,0,0,1,.37,2.49,14.07,14.07,0,0,1-.14,2,4.45,4.45,0,0,1-.53,1.59,2.66,2.66,0,0,1-1.13,1A4.37,4.37,0,0,1,408.52,318.26Z" style="fill:#263238"></path><ellipse cx="407.06" cy="356.08" rx="23.2" ry="2.86" style="opacity:0.25"></ellipse></g><g id="freepik--t-shirt-10--inject-55"><polygon points="347.31 300.04 335.73 290.53 331.13 289.83 320.62 289.91 315.5 290.53 303.92 300.04 307.55 305.22 314.64 303.32 313.25 331.57 337.98 331.57 336.6 303.32 343.68 305.22 347.31 300.04" style="fill:#fff"></polygon><path d="M338,332.07H313.25a.52.52,0,0,1-.36-.16.48.48,0,0,1-.13-.37L314.1,304l-6.42,1.73a.52.52,0,0,1-.54-.2l-3.63-5.19a.5.5,0,0,1,.09-.67l11.58-9.51a.54.54,0,0,1,.26-.11l5.12-.62,10.56-.08,4.69.7a.48.48,0,0,1,.24.11l11.58,9.51a.5.5,0,0,1,.09.67l-3.63,5.19a.51.51,0,0,1-.54.2L337.13,304l1.35,27.56a.53.53,0,0,1-.14.37A.5.5,0,0,1,338,332.07Zm-24.2-1h23.67l-1.35-27.73a.49.49,0,0,1,.62-.5l6.75,1.81,3.17-4.52L335.52,291l-4.47-.67-10.43.08-4.91.59-11.12,9.13,3.17,4.52,6.75-1.81a.5.5,0,0,1,.44.09.52.52,0,0,1,.19.41Z" style="fill:#263238"></path><path d="M320.62,289.91l-.68.1a5.69,5.69,0,0,0,11.35-.14l-.17,0Z" style="fill:#263238"></path><path d="M325.62,295.72a6.22,6.22,0,0,1-6.17-5.67.48.48,0,0,1,.42-.53l.67-.11h.08l10.5-.08.27.05a.49.49,0,0,1,.4.52A6.18,6.18,0,0,1,325.62,295.72Zm-5.12-5.29a5.24,5.24,0,0,0,5.12,4.29,5.19,5.19,0,0,0,5.12-4.39Z" style="fill:#263238"></path><path d="M320.9,289.91a4.76,4.76,0,0,0,9.44-.07Z" style="fill:#fff"></path><path d="M325.62,294.52a5.42,5.42,0,0,1-5.21-4.52.49.49,0,0,1,.48-.59l9.45-.07h0a.5.5,0,0,1,.5.59A5.42,5.42,0,0,1,325.62,294.52Zm-4.08-4.12a4.22,4.22,0,0,0,8.17-.06Z" style="fill:#263238"></path><polygon points="307.55 305.22 309.46 304.71 305.42 298.8 303.92 300.04 307.55 305.22" style="fill:#263238"></polygon><path d="M307.55,305.72a.52.52,0,0,1-.41-.21l-3.63-5.19a.5.5,0,0,1,.09-.67l1.51-1.24a.56.56,0,0,1,.39-.11.55.55,0,0,1,.34.22l4,5.91a.51.51,0,0,1,.06.45.5.5,0,0,1-.34.31l-1.91.52Zm-3-5.59,3.17,4.52.89-.24-3.33-4.88Z" style="fill:#263238"></path><polygon points="343.68 305.22 341.77 304.71 345.81 298.8 347.31 300.04 343.68 305.22" style="fill:#263238"></polygon><path d="M343.68,305.72h-.13l-1.91-.52a.47.47,0,0,1-.33-.31.48.48,0,0,1,.05-.45l4-5.91a.5.5,0,0,1,.34-.22.6.6,0,0,1,.39.11l1.5,1.24a.5.5,0,0,1,.09.67l-3.63,5.19A.51.51,0,0,1,343.68,305.72Zm-1.1-1.31.89.24,3.17-4.52-.73-.6Z" style="fill:#263238"></path><path d="M326.4,318v-3.08h-4.22v-2.09l3.58-8.56H329v8.54h1.27v2.11H329V318Zm-2.07-5.19h2.07v-5.71Z" style="fill:#263238"></path><ellipse cx="326.63" cy="356.08" rx="23.2" ry="2.86" style="opacity:0.25"></ellipse></g><g id="freepik--t-shirt-9--inject-55"><polygon points="277.03 347.31 265.45 337.8 260.85 337.11 250.34 337.18 245.22 337.8 233.64 347.31 237.27 352.5 244.36 350.59 242.98 378.84 267.7 378.84 266.31 350.59 273.4 352.5 277.03 347.31" style="fill:#fff"></polygon><path d="M267.7,379.34H243a.51.51,0,0,1-.37-.15.5.5,0,0,1-.13-.37l1.35-27.57L237.4,353a.52.52,0,0,1-.54-.2l-3.63-5.18a.51.51,0,0,1,.09-.68l11.59-9.51a.47.47,0,0,1,.25-.11l5.12-.61,10.56-.08,4.69.7a.51.51,0,0,1,.24.1l11.58,9.51a.51.51,0,0,1,.09.68l-3.63,5.18a.51.51,0,0,1-.54.2l-6.42-1.73,1.35,27.57a.55.55,0,0,1-.14.37A.49.49,0,0,1,267.7,379.34Zm-24.2-1h23.67l-1.35-27.72a.48.48,0,0,1,.18-.41.49.49,0,0,1,.45-.1l6.75,1.81,3.16-4.52-11.12-9.13-4.47-.67-10.43.08-4.91.6-11.11,9.12,3.16,4.52,6.75-1.81a.47.47,0,0,1,.44.1.46.46,0,0,1,.19.41Z" style="fill:#263238"></path><path d="M250.34,337.18l-.67.1a5.69,5.69,0,0,0,11.35-.14l-.17,0Z" style="fill:#263238"></path><path d="M255.34,343a6.22,6.22,0,0,1-6.17-5.67.5.5,0,0,1,.42-.54l.67-.1h.08l10.5-.07.27,0a.49.49,0,0,1,.4.52A6.19,6.19,0,0,1,255.34,343Zm-5.12-5.29a5.19,5.19,0,0,0,10.24-.11Z" style="fill:#263238"></path><path d="M250.62,337.18a4.76,4.76,0,0,0,9.45-.07Z" style="fill:#fff"></path><path d="M255.34,341.79a5.42,5.42,0,0,1-5.21-4.52.51.51,0,0,1,.1-.41.53.53,0,0,1,.38-.18l9.45-.07h0a.53.53,0,0,1,.38.18.56.56,0,0,1,.11.41A5.42,5.42,0,0,1,255.34,341.79Zm-4.08-4.12a4.23,4.23,0,0,0,8.17-.05Z" style="fill:#263238"></path><polygon points="237.27 352.5 239.18 351.98 235.15 346.07 233.64 347.31 237.27 352.5" style="fill:#263238"></polygon><path d="M237.27,353a.5.5,0,0,1-.41-.22l-3.63-5.18a.51.51,0,0,1,.09-.68l1.51-1.23a.5.5,0,0,1,.39-.11.54.54,0,0,1,.34.21l4,5.91a.5.5,0,0,1-.28.77l-1.91.51Zm-3-5.6,3.16,4.52.89-.24L235,346.81Z" style="fill:#263238"></path><polygon points="273.4 352.5 271.5 351.98 275.53 346.07 277.03 347.31 273.4 352.5" style="fill:#263238"></polygon><path d="M273.4,353l-.13,0-1.9-.51a.5.5,0,0,1-.34-.31.5.5,0,0,1,.05-.46l4-5.91a.51.51,0,0,1,.34-.21.5.5,0,0,1,.39.11l1.5,1.23a.51.51,0,0,1,.09.68l-3.63,5.18A.49.49,0,0,1,273.4,353Zm-1.09-1.32.89.24,3.16-4.52-.73-.59Z" style="fill:#263238"></path><path d="M254.68,362.26V351.33l-.42.21-.5.21-.51.21-.45.2v-2.1l.53-.28.73-.4a7.49,7.49,0,0,0,.73-.45,3.65,3.65,0,0,0,.5-.39h2.22v13.72Z" style="fill:#263238"></path><ellipse cx="256.03" cy="403.35" rx="23.2" ry="2.86" style="opacity:0.25"></ellipse></g><g id="freepik--t-shirt-8--inject-55"><polygon points="209.51 300.04 197.93 290.53 193.32 289.83 182.82 289.91 177.7 290.53 166.12 300.04 169.75 305.22 176.84 303.32 175.45 331.57 200.18 331.57 198.79 303.32 205.88 305.22 209.51 300.04" style="fill:#fff"></polygon><path d="M200.18,332.07H175.45a.52.52,0,0,1-.36-.16.53.53,0,0,1-.14-.37L176.3,304l-6.42,1.73a.51.51,0,0,1-.54-.2l-3.63-5.19a.5.5,0,0,1,.09-.67l11.58-9.51a.54.54,0,0,1,.26-.11l5.12-.62,10.56-.08,4.68.7a.47.47,0,0,1,.25.11l11.58,9.51a.5.5,0,0,1,.09.67l-3.63,5.19a.51.51,0,0,1-.54.2L199.33,304l1.35,27.56a.53.53,0,0,1-.14.37A.52.52,0,0,1,200.18,332.07Zm-24.2-1h23.67l-1.36-27.73a.52.52,0,0,1,.19-.41.5.5,0,0,1,.44-.09l6.75,1.81,3.17-4.52L197.72,291l-4.47-.67-10.43.08-4.92.59-11.11,9.13,3.17,4.52,6.75-1.81a.5.5,0,0,1,.44.09.55.55,0,0,1,.19.41Z" style="fill:#263238"></path><path d="M182.82,289.91l-.68.1a5.69,5.69,0,0,0,11.35-.14l-.17,0Z" style="fill:#263238"></path><path d="M187.81,295.72a6.21,6.21,0,0,1-6.16-5.67.48.48,0,0,1,.42-.53l.67-.11h.07l10.51-.08.27.05a.5.5,0,0,1,.4.52A6.19,6.19,0,0,1,187.81,295.72Zm-5.11-5.29a5.19,5.19,0,0,0,10.24-.1Z" style="fill:#263238"></path><path d="M183.1,289.91a4.76,4.76,0,0,0,9.44-.07Z" style="fill:#fff"></path><path d="M187.82,294.52A5.44,5.44,0,0,1,182.6,290a.54.54,0,0,1,.11-.41.46.46,0,0,1,.38-.18l9.45-.07h0a.5.5,0,0,1,.5.59A5.42,5.42,0,0,1,187.82,294.52Zm-4.08-4.12a4.22,4.22,0,0,0,8.17-.06Z" style="fill:#263238"></path><polygon points="169.75 305.22 171.66 304.71 167.62 298.8 166.12 300.04 169.75 305.22" style="fill:#263238"></polygon><path d="M169.75,305.72a.51.51,0,0,1-.41-.21l-3.63-5.19a.5.5,0,0,1,.09-.67l1.51-1.24a.51.51,0,0,1,.38-.11.55.55,0,0,1,.35.22l4,5.91a.51.51,0,0,1,.06.45.5.5,0,0,1-.34.31l-1.91.52Zm-3-5.59,3.17,4.52.89-.24-3.33-4.88Z" style="fill:#263238"></path><polygon points="205.88 305.22 203.97 304.71 208.01 298.8 209.51 300.04 205.88 305.22" style="fill:#263238"></polygon><path d="M205.88,305.72h-.13l-1.91-.52a.5.5,0,0,1-.34-.31.51.51,0,0,1,.06-.45l4-5.91a.55.55,0,0,1,.35-.22.55.55,0,0,1,.38.11l1.51,1.24a.5.5,0,0,1,.09.67l-3.63,5.19A.51.51,0,0,1,205.88,305.72Zm-1.1-1.31.89.24,3.17-4.52-.73-.6Z" style="fill:#263238"></path><path d="M188.56,318.26a4.08,4.08,0,0,1-2.26-.54,2.94,2.94,0,0,1-1.17-1.51,6.74,6.74,0,0,1-.34-2.25v-.49h2.83V314a5.56,5.56,0,0,0,.08,1.1,1.16,1.16,0,0,0,.3.62.92.92,0,0,0,.62.2.75.75,0,0,0,.58-.21,1.08,1.08,0,0,0,.26-.61,5.81,5.81,0,0,0,.07-1,3.41,3.41,0,0,0-.28-1.55,1.22,1.22,0,0,0-1.16-.55h-.53V310H188a1.32,1.32,0,0,0,1.21-.49,3,3,0,0,0,.3-1.52,2.82,2.82,0,0,0-.21-1.22.81.81,0,0,0-.79-.43.72.72,0,0,0-.74.48,3.48,3.48,0,0,0-.17,1.22v.71h-2.83v-.83a4.58,4.58,0,0,1,.44-2.09,3,3,0,0,1,1.29-1.3,4.32,4.32,0,0,1,2-.44,4.51,4.51,0,0,1,2,.42,3,3,0,0,1,1.31,1.25,4.21,4.21,0,0,1,.46,2,3.92,3.92,0,0,1-.49,2,2.09,2.09,0,0,1-1.19,1,2.28,2.28,0,0,1,.85.54,2.5,2.5,0,0,1,.61,1,5.19,5.19,0,0,1,.22,1.62,6.15,6.15,0,0,1-.37,2.22,3,3,0,0,1-1.19,1.51A3.93,3.93,0,0,1,188.56,318.26Z" style="fill:#263238"></path><ellipse cx="187.27" cy="356.08" rx="23.2" ry="2.86" style="opacity:0.25"></ellipse></g><g id="freepik--t-shirt-7--inject-55"><polygon points="126.63 300.04 115.05 290.53 110.44 289.83 99.94 289.91 94.82 290.53 83.23 300.04 86.86 305.22 93.95 303.32 92.57 331.57 117.29 331.57 115.91 303.32 123 305.22 126.63 300.04" style="fill:#fff"></polygon><path d="M117.29,332.07H92.57a.48.48,0,0,1-.36-.16.46.46,0,0,1-.14-.37L93.42,304,87,305.71a.5.5,0,0,1-.53-.2l-3.63-5.19a.5.5,0,0,1,.09-.67l11.58-9.51a.47.47,0,0,1,.26-.11l5.11-.62,10.57-.08,4.68.7a.44.44,0,0,1,.24.11L127,299.65a.5.5,0,0,1,.09.67l-3.63,5.19a.52.52,0,0,1-.54.2L116.44,304l1.35,27.56a.48.48,0,0,1-.13.37A.52.52,0,0,1,117.29,332.07Zm-24.19-1h23.67l-1.36-27.73a.49.49,0,0,1,.19-.41.5.5,0,0,1,.44-.09l6.75,1.81,3.16-4.52L114.84,291l-4.47-.67-10.43.08L95,291l-11.11,9.13,3.16,4.52,6.75-1.81a.52.52,0,0,1,.45.09.51.51,0,0,1,.18.41Z" style="fill:#263238"></path><path d="M99.93,289.91l-.67.1a5.69,5.69,0,0,0,11.35-.14l-.17,0Z" style="fill:#263238"></path><path d="M104.93,295.72a6.23,6.23,0,0,1-6.17-5.67.5.5,0,0,1,.43-.53l.67-.11h.07l10.51-.08.27.05a.5.5,0,0,1,.4.52A6.19,6.19,0,0,1,104.93,295.72Zm-5.11-5.29a5.19,5.19,0,0,0,10.24-.1Z" style="fill:#263238"></path><path d="M100.21,289.91a4.77,4.77,0,0,0,9.45-.07Z" style="fill:#fff"></path><path d="M104.93,294.52A5.44,5.44,0,0,1,99.72,290a.5.5,0,0,1,.49-.59l9.45-.07a.48.48,0,0,1,.38.18.47.47,0,0,1,.11.41A5.42,5.42,0,0,1,104.93,294.52Zm-4.07-4.12a4.22,4.22,0,0,0,8.16-.06Z" style="fill:#263238"></path><polygon points="86.86 305.22 88.77 304.71 84.74 298.8 83.23 300.04 86.86 305.22" style="fill:#263238"></polygon><path d="M86.87,305.72a.49.49,0,0,1-.41-.21l-3.63-5.19a.5.5,0,0,1,.09-.67l1.5-1.24a.54.54,0,0,1,.39-.11.53.53,0,0,1,.34.22l4,5.91a.48.48,0,0,1,0,.45.46.46,0,0,1-.34.31l-1.91.52Zm-3-5.59,3.16,4.52.89-.24-3.33-4.88Z" style="fill:#263238"></path><polygon points="123 305.22 121.09 304.71 125.12 298.8 126.63 300.04 123 305.22" style="fill:#263238"></polygon><path d="M123,305.72h-.13l-1.91-.52a.49.49,0,0,1-.28-.76l4-5.91a.53.53,0,0,1,.34-.22.6.6,0,0,1,.39.11l1.51,1.24a.5.5,0,0,1,.09.67l-3.63,5.19A.52.52,0,0,1,123,305.72Zm-1.1-1.31.89.24,3.16-4.52-.72-.6Z" style="fill:#263238"></path><path d="M100.52,318v-2l3.29-5.05c.24-.37.48-.73.7-1.08a6.32,6.32,0,0,0,.54-1.07,3.12,3.12,0,0,0,.21-1.14,1.42,1.42,0,0,0-.23-.88.81.81,0,0,0-.65-.29,1,1,0,0,0-.71.26,1.38,1.38,0,0,0-.35.68,4.48,4.48,0,0,0-.09.94v.68h-2.75v-.73a5.67,5.67,0,0,1,.39-2.17,3.23,3.23,0,0,1,1.24-1.51,4,4,0,0,1,2.22-.55,3.79,3.79,0,0,1,2.79.95,3.64,3.64,0,0,1,.94,2.67,4.58,4.58,0,0,1-.26,1.55,7.47,7.47,0,0,1-.7,1.38c-.29.44-.59.91-.92,1.39l-2.51,3.75h4V318Z" style="fill:#263238"></path><ellipse cx="104.08" cy="356.08" rx="23.2" ry="2.86" style="opacity:0.25"></ellipse></g><g id="freepik--t-shirt-6--inject-55"><polygon points="393.08 227.59 381.5 218.08 376.89 217.39 366.39 217.46 361.27 218.08 349.69 227.59 353.32 232.78 360.41 230.87 359.02 259.12 383.75 259.12 382.36 230.87 389.45 232.78 393.08 227.59" style="fill:#fff"></polygon><path d="M383.75,259.62H359a.51.51,0,0,1-.36-.15.55.55,0,0,1-.14-.37l1.35-27.56-6.42,1.72a.48.48,0,0,1-.54-.2l-3.63-5.18a.51.51,0,0,1,.09-.68L361,217.69a.66.66,0,0,1,.26-.11l5.12-.61,10.56-.08,4.68.7a.55.55,0,0,1,.25.1l11.58,9.51a.51.51,0,0,1,.09.68l-3.63,5.18a.5.5,0,0,1-.54.2l-6.42-1.72,1.35,27.56a.55.55,0,0,1-.14.37A.51.51,0,0,1,383.75,259.62Zm-24.2-1h23.67l-1.36-27.72a.51.51,0,0,1,.63-.51l6.75,1.81,3.17-4.52-11.12-9.13-4.47-.67-10.43.08-4.92.6-11.11,9.12,3.17,4.52,6.75-1.81a.47.47,0,0,1,.44.1.53.53,0,0,1,.19.41Z" style="fill:#263238"></path><path d="M366.39,217.46l-.68.1a5.69,5.69,0,0,0,11.35-.14l-.17,0Z" style="fill:#263238"></path><path d="M371.38,223.28a6.23,6.23,0,0,1-6.17-5.67.51.51,0,0,1,.43-.54l.67-.1h.07l10.51-.07.27,0a.49.49,0,0,1,.4.52A6.19,6.19,0,0,1,371.38,223.28ZM366.27,218a5.19,5.19,0,0,0,10.24-.11Z" style="fill:#263238"></path><path d="M366.67,217.46a4.76,4.76,0,0,0,9.44-.07Z" style="fill:#fff"></path><path d="M371.38,222.08a5.45,5.45,0,0,1-5.21-4.52.57.57,0,0,1,.11-.42.49.49,0,0,1,.38-.18l9.45-.07h0a.53.53,0,0,1,.39.18.56.56,0,0,1,.11.41A5.44,5.44,0,0,1,371.38,222.08ZM367.31,218a4.22,4.22,0,0,0,8.17-.06Z" style="fill:#263238"></path><polygon points="353.32 232.78 355.23 232.26 351.19 226.35 349.69 227.59 353.32 232.78" style="fill:#263238"></polygon><path d="M353.32,233.28a.49.49,0,0,1-.41-.22l-3.63-5.18a.51.51,0,0,1,.09-.68l1.51-1.23a.47.47,0,0,1,.38-.11.53.53,0,0,1,.35.21l4,5.91a.54.54,0,0,1,.06.46.52.52,0,0,1-.34.31l-1.91.51Zm-3-5.6,3.17,4.52.89-.24-3.33-4.87Z" style="fill:#263238"></path><polygon points="389.45 232.78 387.54 232.26 391.58 226.35 393.08 227.59 389.45 232.78" style="fill:#263238"></polygon><path d="M389.45,233.28l-.13,0-1.91-.51a.52.52,0,0,1-.34-.31.54.54,0,0,1,.06-.46l4-5.91a.53.53,0,0,1,.35-.21.47.47,0,0,1,.38.11l1.51,1.23a.51.51,0,0,1,.09.68l-3.63,5.18A.49.49,0,0,1,389.45,233.28Zm-1.1-1.32.89.24,3.17-4.52-.73-.59Z" style="fill:#263238"></path><path d="M371.08,242.72a4,4,0,0,1-2.22-.55,3,3,0,0,1-1.18-1.52,6,6,0,0,1-.25-3.22,3.65,3.65,0,0,1,.29-.9,2.67,2.67,0,0,1,.49-.73,2.51,2.51,0,0,1,.71-.52,3.32,3.32,0,0,1-.94-1.12,4.14,4.14,0,0,1-.44-1.88,4.49,4.49,0,0,1,.38-2,2.84,2.84,0,0,1,1.2-1.27,4,4,0,0,1,2-.44,4,4,0,0,1,2,.45,2.85,2.85,0,0,1,1.18,1.27,4.32,4.32,0,0,1,.35,2,4.13,4.13,0,0,1-.41,1.89,3,3,0,0,1-.93,1.11,2.66,2.66,0,0,1,.71.52,2.92,2.92,0,0,1,.49.73,3.65,3.65,0,0,1,.29.9,4.62,4.62,0,0,1,.11,1,5.81,5.81,0,0,1-.34,2.23,3.06,3.06,0,0,1-1.19,1.52A4,4,0,0,1,371.08,242.72Zm0-2.08a.69.69,0,0,0,.66-.34,2,2,0,0,0,.26-.81c0-.31.05-.59.05-.85a6.85,6.85,0,0,0,0-1,1.8,1.8,0,0,0-.27-.8.82.82,0,0,0-1.3,0,1.8,1.8,0,0,0-.26.79,8.52,8.52,0,0,0-.06,1,6.67,6.67,0,0,0,.05.86,1.8,1.8,0,0,0,.26.81A.72.72,0,0,0,371.08,240.64Zm0-6.37a.6.6,0,0,0,.48-.23,1.65,1.65,0,0,0,.28-.69,5.93,5.93,0,0,0,.09-1.13,2.47,2.47,0,0,0-.21-1.11.67.67,0,0,0-.64-.4.71.71,0,0,0-.65.4,2.29,2.29,0,0,0-.23,1.09,5.3,5.3,0,0,0,.1,1.14,1.57,1.57,0,0,0,.29.7A.65.65,0,0,0,371.08,234.27Z" style="fill:#263238"></path><ellipse cx="370.97" cy="284.86" rx="23.2" ry="2.86" style="opacity:0.25"></ellipse></g><g id="freepik--t-shirt-5--inject-55"><polygon points="277.03 227.59 265.45 218.08 260.85 217.39 250.34 217.46 245.22 218.08 233.64 227.59 237.27 232.78 244.36 230.87 242.98 259.12 267.7 259.12 266.31 230.87 273.4 232.78 277.03 227.59" style="fill:#fff"></polygon><path d="M267.7,259.62H243a.51.51,0,0,1-.37-.15.5.5,0,0,1-.13-.37l1.35-27.56-6.43,1.72a.48.48,0,0,1-.54-.2l-3.63-5.18a.51.51,0,0,1,.09-.68l11.59-9.51a.57.57,0,0,1,.25-.11l5.12-.61,10.56-.08,4.69.7a.51.51,0,0,1,.24.1l11.58,9.51a.51.51,0,0,1,.09.68l-3.63,5.18a.49.49,0,0,1-.54.2l-6.42-1.72,1.35,27.56a.55.55,0,0,1-.14.37A.49.49,0,0,1,267.7,259.62Zm-24.2-1h23.67l-1.35-27.72a.49.49,0,0,1,.18-.41.52.52,0,0,1,.45-.1l6.75,1.81,3.16-4.52-11.12-9.13-4.47-.67-10.43.08-4.91.6-11.11,9.12,3.16,4.52,6.75-1.81a.51.51,0,0,1,.63.51Z" style="fill:#263238"></path><path d="M250.34,217.46l-.67.1a5.69,5.69,0,0,0,11.35-.14l-.17,0Z" style="fill:#263238"></path><path d="M255.34,223.28a6.22,6.22,0,0,1-6.17-5.67.5.5,0,0,1,.42-.54l.68-.1h.07l10.5-.07.27,0a.49.49,0,0,1,.4.52A6.19,6.19,0,0,1,255.34,223.28ZM250.22,218a5.19,5.19,0,0,0,10.24-.11Z" style="fill:#263238"></path><path d="M250.62,217.46a4.76,4.76,0,0,0,9.45-.07Z" style="fill:#fff"></path><path d="M255.34,222.08a5.43,5.43,0,0,1-5.21-4.52.49.49,0,0,1,.48-.6l9.45-.07h0a.53.53,0,0,1,.38.18.56.56,0,0,1,.11.41A5.43,5.43,0,0,1,255.34,222.08ZM251.26,218a4.22,4.22,0,0,0,8.17-.06Z" style="fill:#263238"></path><polygon points="237.27 232.78 239.18 232.26 235.15 226.35 233.64 227.59 237.27 232.78" style="fill:#263238"></polygon><path d="M237.27,233.28a.5.5,0,0,1-.41-.22l-3.63-5.18a.51.51,0,0,1,.09-.68l1.51-1.23a.5.5,0,0,1,.39-.11.54.54,0,0,1,.34.21l4,5.91a.54.54,0,0,1,.06.46.5.5,0,0,1-.34.31l-1.91.51Zm-3-5.6,3.16,4.52.89-.24L235,227.09Z" style="fill:#263238"></path><polygon points="273.4 232.78 271.5 232.26 275.53 226.35 277.03 227.59 273.4 232.78" style="fill:#263238"></polygon><path d="M273.4,233.28l-.13,0-1.9-.51a.48.48,0,0,1-.34-.31.5.5,0,0,1,.05-.46l4-5.91a.51.51,0,0,1,.34-.21.5.5,0,0,1,.39.11l1.5,1.23a.51.51,0,0,1,.09.68l-3.63,5.18A.49.49,0,0,1,273.4,233.28ZM272.31,232l.89.24,3.16-4.52-.73-.59Z" style="fill:#263238"></path><path d="M252.44,242.5l3-11.57h-3.75v-2.15h6.51v1.94l-3,11.78Z" style="fill:#263238"></path><ellipse cx="255.55" cy="284.86" rx="23.2" ry="2.86" style="opacity:0.25"></ellipse></g><g id="freepik--t-shirt-4--inject-55"><polygon points="169.61 227.59 158.02 218.08 153.42 217.39 142.91 217.46 137.79 218.08 126.21 227.59 129.84 232.78 136.93 230.87 135.55 259.12 160.27 259.12 158.89 230.87 165.97 232.78 169.61 227.59" style="fill:#fff"></polygon><path d="M160.27,259.62H135.55a.51.51,0,0,1-.37-.15.5.5,0,0,1-.13-.37l1.35-27.56L130,233.26a.48.48,0,0,1-.54-.2l-3.63-5.18a.51.51,0,0,1,.09-.68l11.59-9.51a.57.57,0,0,1,.25-.11l5.12-.61,10.56-.08,4.69.7a.51.51,0,0,1,.24.1l11.58,9.51a.51.51,0,0,1,.1.68l-3.64,5.18a.47.47,0,0,1-.53.2l-6.43-1.72,1.35,27.56a.47.47,0,0,1-.14.37A.48.48,0,0,1,160.27,259.62Zm-24.2-1h23.67l-1.35-27.72a.5.5,0,0,1,.63-.51l6.75,1.81,3.16-4.52-11.12-9.13-4.47-.67-10.43.08-4.91.6-11.11,9.12,3.16,4.52,6.75-1.81a.51.51,0,0,1,.63.51Z" style="fill:#263238"></path><path d="M142.91,217.46l-.67.1a5.69,5.69,0,0,0,11.35-.14l-.17,0Z" style="fill:#263238"></path><path d="M147.91,223.28a6.23,6.23,0,0,1-6.17-5.67.5.5,0,0,1,.42-.54l.68-.1h.07l10.5-.07.27,0a.51.51,0,0,1,.41.52A6.21,6.21,0,0,1,147.91,223.28ZM142.8,218a5.19,5.19,0,0,0,10.24-.11Z" style="fill:#263238"></path><path d="M143.19,217.46a4.76,4.76,0,0,0,9.45-.07Z" style="fill:#fff"></path><path d="M147.91,222.08a5.43,5.43,0,0,1-5.21-4.52.53.53,0,0,1,.1-.42.53.53,0,0,1,.39-.18l9.44-.07h0a.53.53,0,0,1,.38.18.52.52,0,0,1,.11.41A5.43,5.43,0,0,1,147.91,222.08ZM143.83,218a4.22,4.22,0,0,0,8.17-.06Z" style="fill:#263238"></path><polygon points="129.84 232.78 131.75 232.26 127.72 226.35 126.21 227.59 129.84 232.78" style="fill:#263238"></polygon><path d="M129.84,233.28a.5.5,0,0,1-.41-.22l-3.63-5.18a.51.51,0,0,1,.09-.68L127.4,226a.5.5,0,0,1,.39-.11.51.51,0,0,1,.34.21l4,5.91a.5.5,0,0,1-.28.77l-1.91.51Zm-3-5.6,3.16,4.52.89-.24-3.33-4.87Z" style="fill:#263238"></path><polygon points="165.97 232.78 164.07 232.26 168.1 226.35 169.61 227.59 165.97 232.78" style="fill:#263238"></polygon><path d="M166,233.28l-.13,0-1.91-.51a.48.48,0,0,1-.34-.31.5.5,0,0,1,.05-.46l4-5.91a.51.51,0,0,1,.34-.21.5.5,0,0,1,.39.11l1.5,1.23a.51.51,0,0,1,.1.68l-3.64,5.18A.47.47,0,0,1,166,233.28Zm-1.1-1.32.89.24,3.16-4.52-.72-.59Z" style="fill:#263238"></path><path d="M148.7,242.71a3.74,3.74,0,0,1-2.18-.59,3.4,3.4,0,0,1-1.22-1.6,6.45,6.45,0,0,1-.39-2.32v-5a8.34,8.34,0,0,1,.31-2.39,3.1,3.1,0,0,1,1.13-1.65,3.89,3.89,0,0,1,2.34-.6,4.34,4.34,0,0,1,2.08.41,2.26,2.26,0,0,1,1.08,1.18,5,5,0,0,1,.33,1.93.53.53,0,0,0,0,.13v.11h-2.66a4.66,4.66,0,0,0-.12-1.23c-.09-.26-.32-.4-.71-.4a.7.7,0,0,0-.58.24,1.62,1.62,0,0,0-.26.83,14.33,14.33,0,0,0-.07,1.66v1.22a1.31,1.31,0,0,1,.66-.55,2.78,2.78,0,0,1,1-.21,2.57,2.57,0,0,1,1.74.49,3,3,0,0,1,.94,1.43,6.77,6.77,0,0,1,.29,2,8.75,8.75,0,0,1-.34,2.53A3.33,3.33,0,0,1,151,242.1,3.77,3.77,0,0,1,148.7,242.71Zm0-2.09a.62.62,0,0,0,.56-.26,1.8,1.8,0,0,0,.24-.78,11.45,11.45,0,0,0,.06-1.28c0-.45,0-.84,0-1.17a1.71,1.71,0,0,0-.23-.77.68.68,0,0,0-.63-.28,1.09,1.09,0,0,0-.39.08,1.21,1.21,0,0,0-.32.22.85.85,0,0,0-.2.24v2.24a4.76,4.76,0,0,0,.07.86,1.43,1.43,0,0,0,.29.66A.75.75,0,0,0,148.74,240.62Z" style="fill:#263238"></path><ellipse cx="147.98" cy="284.86" rx="23.2" ry="2.86" style="opacity:0.25"></ellipse></g><g id="freepik--t-shirt-3--inject-55"><polygon points="380.79 151.46 369.21 141.95 364.6 141.26 354.1 141.33 348.98 141.95 337.4 151.46 341.03 156.65 348.12 154.75 346.73 182.99 371.45 182.99 370.07 154.75 377.16 156.65 380.79 151.46" style="fill:#fff"></polygon><path d="M371.46,183.49H346.73a.49.49,0,0,1-.36-.15.55.55,0,0,1-.14-.37l1.35-27.56-6.42,1.72a.48.48,0,0,1-.54-.2L337,151.75a.51.51,0,0,1,.09-.68l11.58-9.5a.46.46,0,0,1,.26-.11l5.12-.62,10.56-.08,4.68.7a.47.47,0,0,1,.25.11l11.58,9.5a.51.51,0,0,1,.09.68l-3.63,5.18a.48.48,0,0,1-.54.2l-6.42-1.72L372,183a.5.5,0,0,1-.13.37A.51.51,0,0,1,371.46,183.49Zm-24.2-1h23.67l-1.36-27.72a.51.51,0,0,1,.63-.51l6.75,1.81,3.17-4.52L369,142.43l-4.47-.68-10.43.08-4.92.6-11.11,9.12,3.17,4.52,6.75-1.81a.51.51,0,0,1,.44.1.49.49,0,0,1,.18.41Z" style="fill:#263238"></path><path d="M354.1,141.33l-.68.11a5.69,5.69,0,0,0,11.35-.15l-.17,0Z" style="fill:#263238"></path><path d="M359.09,147.15a6.23,6.23,0,0,1-6.17-5.67.51.51,0,0,1,.43-.54l.67-.1h.07l10.51-.07.27,0a.5.5,0,0,1,.4.52A6.2,6.2,0,0,1,359.09,147.15ZM354,141.86a5.19,5.19,0,0,0,10.24-.11Z" style="fill:#263238"></path><path d="M354.38,141.33a4.76,4.76,0,0,0,9.44-.06Z" style="fill:#fff"></path><path d="M359.09,146a5.44,5.44,0,0,1-5.21-4.52A.53.53,0,0,1,354,141a.49.49,0,0,1,.38-.18l9.45-.06h0a.52.52,0,0,1,.39.17.51.51,0,0,1,.1.41A5.41,5.41,0,0,1,359.09,146ZM355,141.83a4.22,4.22,0,0,0,8.17-.06Z" style="fill:#263238"></path><polygon points="341.03 156.65 342.94 156.13 338.9 150.22 337.4 151.46 341.03 156.65" style="fill:#263238"></polygon><path d="M341,157.15a.49.49,0,0,1-.41-.22L337,151.75a.51.51,0,0,1,.09-.68l1.5-1.23a.5.5,0,0,1,.39-.11.49.49,0,0,1,.34.21l4,5.91a.5.5,0,0,1,0,.46.49.49,0,0,1-.33.31l-1.91.51Zm-3-5.6,3.17,4.52.88-.24L338.8,151Z" style="fill:#263238"></path><polygon points="377.16 156.65 375.25 156.13 379.29 150.22 380.79 151.46 377.16 156.65" style="fill:#263238"></polygon><path d="M377.16,157.15l-.13,0-1.91-.51a.52.52,0,0,1-.34-.31.54.54,0,0,1,.06-.46l4-5.91a.54.54,0,0,1,.34-.21.48.48,0,0,1,.39.11l1.51,1.23a.51.51,0,0,1,.09.68l-3.63,5.18A.49.49,0,0,1,377.16,157.15Zm-1.1-1.32.89.24,3.17-4.52-.73-.59Z" style="fill:#263238"></path><path d="M354.23,166.75V155.82a4.09,4.09,0,0,1-.42.2l-.5.22-.51.21c-.17.07-.32.13-.45.2v-2.1l.52-.28.73-.4a7.49,7.49,0,0,0,.73-.45,3.28,3.28,0,0,0,.51-.39h2.22v13.72Z" style="fill:#263238"></path><path d="M360.82,166.75V155.82a2.75,2.75,0,0,1-.42.2l-.5.22-.51.21-.45.2v-2.1l.53-.28.72-.4a6.45,6.45,0,0,0,.73-.45,3.28,3.28,0,0,0,.51-.39h2.22v13.72Z" style="fill:#263238"></path><ellipse cx="359.79" cy="208.11" rx="23.2" ry="2.86" style="opacity:0.25"></ellipse></g><g id="freepik--t-shirt-2--inject-55"><polygon points="277.03 151.46 265.45 141.95 260.85 141.26 250.34 141.33 245.22 141.95 233.64 151.46 237.27 156.65 244.36 154.75 242.98 182.99 267.7 182.99 266.31 154.75 273.4 156.65 277.03 151.46" style="fill:#fff"></polygon><path d="M267.7,183.49H243a.51.51,0,0,1-.37-.15.5.5,0,0,1-.13-.37l1.35-27.56-6.43,1.72a.48.48,0,0,1-.54-.2l-3.63-5.18a.51.51,0,0,1,.09-.68l11.59-9.5a.41.41,0,0,1,.25-.11l5.12-.62,10.56-.08,4.69.7a.44.44,0,0,1,.24.11l11.58,9.5a.51.51,0,0,1,.09.68l-3.63,5.18a.48.48,0,0,1-.54.2l-6.42-1.72L268.2,183a.55.55,0,0,1-.14.37A.49.49,0,0,1,267.7,183.49Zm-24.2-1h23.67l-1.35-27.72a.49.49,0,0,1,.18-.41.52.52,0,0,1,.45-.1l6.75,1.81,3.16-4.52-11.12-9.12-4.47-.68-10.43.08-4.91.6-11.11,9.12,3.16,4.52,6.75-1.81a.5.5,0,0,1,.44.1.48.48,0,0,1,.19.41Z" style="fill:#263238"></path><path d="M250.34,141.33l-.67.11a5.69,5.69,0,0,0,11.35-.15l-.17,0Z" style="fill:#263238"></path><path d="M255.34,147.15a6.22,6.22,0,0,1-6.17-5.67.5.5,0,0,1,.42-.54l.68-.1h.07l10.5-.07.27,0a.49.49,0,0,1,.4.52A6.19,6.19,0,0,1,255.34,147.15Zm-5.12-5.29a5.19,5.19,0,0,0,10.24-.11Z" style="fill:#263238"></path><path d="M250.62,141.33a4.76,4.76,0,0,0,9.45-.06Z" style="fill:#fff"></path><path d="M255.34,146a5.42,5.42,0,0,1-5.21-4.52.49.49,0,0,1,.48-.6l9.45-.06h0a.52.52,0,0,1,.38.17.56.56,0,0,1,.11.41A5.42,5.42,0,0,1,255.34,146Zm-4.08-4.12a4.22,4.22,0,0,0,8.17-.06Z" style="fill:#263238"></path><polygon points="237.27 156.65 239.18 156.13 235.15 150.22 233.64 151.46 237.27 156.65" style="fill:#263238"></polygon><path d="M237.27,157.15a.5.5,0,0,1-.41-.22l-3.63-5.18a.51.51,0,0,1,.09-.68l1.51-1.23a.5.5,0,0,1,.39-.11.54.54,0,0,1,.34.21l4,5.91a.54.54,0,0,1,.06.46.5.5,0,0,1-.34.31l-1.91.51Zm-3-5.6,3.16,4.52.89-.24L235,151Z" style="fill:#263238"></path><polygon points="273.4 156.65 271.5 156.13 275.53 150.22 277.03 151.46 273.4 156.65" style="fill:#263238"></polygon><path d="M273.4,157.15l-.13,0-1.9-.51a.48.48,0,0,1-.34-.31.5.5,0,0,1,.05-.46l4-5.91a.51.51,0,0,1,.34-.21.5.5,0,0,1,.39.11l1.5,1.23a.51.51,0,0,1,.09.68l-3.63,5.18A.49.49,0,0,1,273.4,157.15Zm-1.09-1.32.89.24,3.16-4.52-.73-.59Z" style="fill:#263238"></path><path d="M249.49,166.75V155.82a3.45,3.45,0,0,1-.43.2l-.5.22-.51.21c-.16.07-.31.13-.44.2v-2.1l.52-.28.73-.4a7.49,7.49,0,0,0,.73-.45,4.68,4.68,0,0,0,.51-.39h2.22v13.72Z" style="fill:#263238"></path><path d="M258.49,167a4,4,0,0,1-2.07-.5,3.26,3.26,0,0,1-1.26-1.39,4.69,4.69,0,0,1-.42-2.05v-6.22a5.08,5.08,0,0,1,.4-2.1,3,3,0,0,1,1.23-1.42,4,4,0,0,1,2.12-.51,3.91,3.91,0,0,1,2.1.51,3.1,3.1,0,0,1,1.23,1.42,5.25,5.25,0,0,1,.39,2.1v6.22a4.78,4.78,0,0,1-.42,2.05,3.23,3.23,0,0,1-1.25,1.39A4,4,0,0,1,258.49,167Zm0-2.53a.66.66,0,0,0,.58-.26,1.4,1.4,0,0,0,.22-.61,4.62,4.62,0,0,0,0-.6v-6.09c0-.19,0-.41,0-.65a1.35,1.35,0,0,0-.21-.64.65.65,0,0,0-.6-.28.66.66,0,0,0-.61.28,1.35,1.35,0,0,0-.21.64c0,.24,0,.46,0,.65V163a4.83,4.83,0,0,0,.05.6,1.41,1.41,0,0,0,.23.61A.65.65,0,0,0,258.49,164.48Z" style="fill:#263238"></path><ellipse cx="252.96" cy="208.11" rx="23.2" ry="2.86" style="opacity:0.25"></ellipse></g><g id="freepik--t-shirt-1--inject-55"><polygon points="172.66 151.46 161.08 141.95 156.47 141.26 145.97 141.33 140.85 141.95 129.27 151.46 132.9 156.65 139.99 154.75 138.6 182.99 163.33 182.99 161.94 154.75 169.03 156.65 172.66 151.46" style="fill:#fff"></polygon><path d="M163.33,183.49H138.6a.51.51,0,0,1-.36-.15.5.5,0,0,1-.13-.37l1.35-27.56L133,157.13a.48.48,0,0,1-.54-.2l-3.63-5.18a.51.51,0,0,1,.09-.68l11.58-9.5a.46.46,0,0,1,.26-.11l5.12-.62,10.56-.08,4.69.7a.48.48,0,0,1,.24.11l11.58,9.5a.51.51,0,0,1,.09.68l-3.63,5.18a.48.48,0,0,1-.54.2l-6.42-1.72L163.83,183a.55.55,0,0,1-.14.37A.49.49,0,0,1,163.33,183.49Zm-24.2-1H162.8l-1.35-27.72a.49.49,0,0,1,.18-.41.47.47,0,0,1,.44-.1l6.75,1.81,3.17-4.52-11.12-9.12-4.47-.68-10.43.08-4.91.6-11.12,9.12,3.17,4.52,6.75-1.81a.5.5,0,0,1,.44.1.48.48,0,0,1,.19.41Z" style="fill:#263238"></path><path d="M146,141.33l-.67.11a5.69,5.69,0,0,0,11.35-.15l-.18,0Z" style="fill:#263238"></path><path d="M151,147.15a6.22,6.22,0,0,1-6.17-5.67.49.49,0,0,1,.42-.54l.67-.1H146l10.5-.07.27,0a.49.49,0,0,1,.4.52A6.19,6.19,0,0,1,151,147.15Zm-5.12-5.29a5.19,5.19,0,0,0,10.24-.11Z" style="fill:#263238"></path><path d="M146.25,141.33a4.76,4.76,0,0,0,9.44-.06Z" style="fill:#fff"></path><path d="M151,146a5.42,5.42,0,0,1-5.21-4.52.49.49,0,0,1,.48-.6l9.45-.06a.48.48,0,0,1,.39.17.56.56,0,0,1,.11.41A5.42,5.42,0,0,1,151,146Zm-4.08-4.12a4.22,4.22,0,0,0,8.17-.06Z" style="fill:#263238"></path><polygon points="132.9 156.65 134.81 156.13 130.77 150.22 129.27 151.46 132.9 156.65" style="fill:#263238"></polygon><path d="M132.9,157.15a.5.5,0,0,1-.41-.22l-3.63-5.18a.51.51,0,0,1,.09-.68l1.51-1.23a.5.5,0,0,1,.39-.11.54.54,0,0,1,.34.21l4,5.91a.54.54,0,0,1,.06.46.52.52,0,0,1-.34.31l-1.91.51Zm-3-5.6,3.17,4.52.89-.24L130.67,151Z" style="fill:#263238"></path><polygon points="169.03 156.65 167.13 156.13 171.16 150.22 172.66 151.46 169.03 156.65" style="fill:#263238"></polygon><path d="M169,157.15l-.13,0-1.9-.51a.48.48,0,0,1-.34-.31.5.5,0,0,1,.05-.46l4-5.91a.49.49,0,0,1,.34-.21.5.5,0,0,1,.39.11l1.5,1.23a.51.51,0,0,1,.09.68l-3.63,5.18A.49.49,0,0,1,169,157.15Zm-1.09-1.32.88.24,3.17-4.52-.73-.59Z" style="fill:#263238"></path><path d="M150.91,167a4.45,4.45,0,0,1-2.08-.4,2.32,2.32,0,0,1-1.09-1.2,5.21,5.21,0,0,1-.32-1.94v-.22h2.64a3.69,3.69,0,0,0,.15,1.23c.09.27.33.4.72.4a.67.67,0,0,0,.57-.24,1.6,1.6,0,0,0,.25-.84q.06-.6.06-1.65v-1.22a1.35,1.35,0,0,1-.67.54,2.93,2.93,0,0,1-1,.22,2.55,2.55,0,0,1-1.75-.54,3,3,0,0,1-.94-1.51,6.79,6.79,0,0,1-.29-2.06,7.7,7.7,0,0,1,.36-2.49,3.12,3.12,0,0,1,1.2-1.61,3.74,3.74,0,0,1,2.2-.58,4,4,0,0,1,2.19.54,3.16,3.16,0,0,1,1.21,1.52,6.35,6.35,0,0,1,.38,2.29v5.12a8.71,8.71,0,0,1-.31,2.39,3.1,3.1,0,0,1-1.13,1.65A3.89,3.89,0,0,1,150.91,167Zm0-7.49a.81.81,0,0,0,.55-.18,2.51,2.51,0,0,0,.32-.36v-2.23a4.83,4.83,0,0,0-.07-.88,1.43,1.43,0,0,0-.25-.64.7.7,0,0,0-.58-.25.64.64,0,0,0-.56.27,1.6,1.6,0,0,0-.24.78,11.25,11.25,0,0,0-.06,1.27c0,.45,0,.83,0,1.17a1.64,1.64,0,0,0,.23.78A.69.69,0,0,0,150.94,159.46Z" style="fill:#263238"></path><ellipse cx="151.66" cy="208.11" rx="23.2" ry="2.86" style="opacity:0.25"></ellipse></g><g id="freepik--text-1--inject-55"><path d="M207.09,121.4a4.23,4.23,0,0,1-3.26-1.16,5.68,5.68,0,0,1-1.16-3.72l2.91-.44a5.25,5.25,0,0,0,.35,2.1,1.06,1.06,0,0,0,1,.65c.57,0,.86-.37.86-1.11a2.88,2.88,0,0,0-.22-1.15,3.13,3.13,0,0,0-.55-.89,8.77,8.77,0,0,0-.91-.87l-1.36-1.18c-.33-.29-.6-.55-.82-.78a6.56,6.56,0,0,1-.63-.84,3.71,3.71,0,0,1-.46-1.08,5.36,5.36,0,0,1-.15-1.31,3.81,3.81,0,0,1,1.15-3,4.56,4.56,0,0,1,3.15-1.06,4.81,4.81,0,0,1,1.25.15,3.48,3.48,0,0,1,1,.39,2.79,2.79,0,0,1,.68.61,4.2,4.2,0,0,1,.46.73,5.36,5.36,0,0,1,.29.83,5.75,5.75,0,0,1,.15.84q0,.38.06.81l-2.94.38c0-.26,0-.47,0-.64s0-.35-.05-.54a2.88,2.88,0,0,0-.1-.47,1.71,1.71,0,0,0-.17-.33.71.71,0,0,0-.27-.22,1,1,0,0,0-.39,0,.79.79,0,0,0-.68.37,1.49,1.49,0,0,0-.24.83,2.79,2.79,0,0,0,.11.79,1.94,1.94,0,0,0,.37.69c.18.22.32.39.43.5s.3.29.56.52l1.31,1.15a11.62,11.62,0,0,1,.93.92,9.44,9.44,0,0,1,.74,1,4.53,4.53,0,0,1,.53,1.23,5.57,5.57,0,0,1,.18,1.44A3.72,3.72,0,0,1,210,120.3,4,4,0,0,1,207.09,121.4Z" style="fill:#03F384"></path><path d="M212,121.19l2.91-15.38h3.84l2.9,15.38h-3.14l-.53-3.27h-2.24l-.52,3.27Zm4-5.3h1.64l-.83-6Z" style="fill:#03F384"></path><path d="M223.17,121.19l.25-15.38h3.64l1.71,9,1.83-9h3.52l.25,15.38h-2.43L231.69,111l-1.81,10.21h-2.12l-1.9-10.28-.23,10.28Z" style="fill:#03F384"></path><path d="M236.59,121.19V105.81h5.13a3.86,3.86,0,0,1,3.05,1.14,4.88,4.88,0,0,1,1,3.32,7.34,7.34,0,0,1-.15,1.55,3.38,3.38,0,0,1-1.14,2,2.79,2.79,0,0,1-.91.51,4.85,4.85,0,0,1-1.06.27,8.72,8.72,0,0,1-1.2.08H240v6.55Zm3.39-8.92h1.09a1.33,1.33,0,0,0,1.22-.47,3.09,3.09,0,0,0,.3-1.59c0-.26,0-.49,0-.67a3.7,3.7,0,0,0-.11-.54,1.16,1.16,0,0,0-.25-.44,1.23,1.23,0,0,0-.45-.27,2.11,2.11,0,0,0-.7-.1H240Z" style="fill:#03F384"></path><path d="M247.37,121.19V105.81h3.39v13.08h3.53v2.3Z" style="fill:#03F384"></path><path d="M255.77,121.19V105.81h6.91v2.32h-3.51v3.8h2.68v2.36h-2.68v4.6h3.55v2.3Z" style="fill:#03F384"></path><path d="M270.56,121.19V108.32H268.2v-2.51h8.1v2.51H274v12.87Z" style="fill:#03F384"></path><path d="M277.62,121.19V105.81h6.91v2.32H281v3.8h2.68v2.36H281v4.6h3.55v2.3Z" style="fill:#03F384"></path><path d="M285.38,121.19l2.91-15.38h3.84l2.9,15.38h-3.14l-.53-3.27h-2.24l-.52,3.27Zm4-5.3h1.64l-.82-6Z" style="fill:#03F384"></path><path d="M296.52,121.19l.25-15.38h3.64l1.7,9,1.84-9h3.52l.25,15.38h-2.43L305,111l-1.81,10.21H301.1l-1.89-10.28L299,121.19Z" style="fill:#03F384"></path></g></svg>
